<svg xmlns="http://www.w3.org/2000/svg" viewBox="0 0 24 24" fill="none">
  <circle cx="12" cy="12" r="11" fill="#7360F2"/>
  <path fill="#fff" fill-opacity=".18" d="M12 5.8c-3.6 0-6.5 2.3-6.5 5.2 0 1.8 1.1 3.4 2.9 4.4l-.5 2.3 2.2-1.2.5.1c3.5 0 6.3-2.3 6.3-5.1 0-3-2.9-5.7-6.9-5.7Z"/>
  <path fill="#fff" d="M9.4 8.8c-.2-.4-.6-.5-1-.4-.4.1-.7.4-.8.8-.1.5-.1 1.4.3 2.6.6 1.7 2.1 3.3 3.8 4 .9.3 1.8.4 2.3.3.4-.1.7-.4.9-.8l.2-.5c.1-.3 0-.7-.3-.8l-1.2-.5c-.3-.1-.7-.1-.9.2l-.4.5c-.1.1-.3.2-.5.1-.5-.2-1.1-.7-1.6-1.3-.5-.6-.9-1.2-1.1-1.6-.1-.2 0-.4.1-.5l.5-.4c.3-.2.3-.6.2-.9l-.5-1.2Z"/>
</svg>
